<svg xmlns="http://www.w3.org/2000/svg" viewBox="518 494 12 15" x="0px" y="0px"><defs><style>
      .cls-1 {
        fill: none;
      }
    </style></defs><g data-name="Group 3584" transform="translate(-335 -37)"><rect data-name="Rectangle 1358" class="cls-1" width="12" height="12" transform="translate(853 531)"/><path data-name="Subtraction 7" d="M338,41h-2a1,1,0,0,1-1-1V38a1,1,0,0,1,1-1h2a1,1,0,0,1,1,1v2A1,1,0,0,1,338,41Zm-2-3v2h2V38Z" transform="translate(519 494)"/><path data-name="Subtraction 6" d="M338,40h-3V37h3v3Zm-2-2v1h1V38Z" transform="translate(525 503)"/><path data-name="Subtraction 5" d="M338,40h-3V37h3v3Zm-2-2v1h1V38Z" transform="translate(525 499)"/><rect data-name="Rectangle 1351" width="1" height="8" transform="translate(856 534)"/><rect data-name="Rectangle 1352" width="5" height="1" transform="translate(856 537)"/><rect data-name="Rectangle 1353" width="5" height="1" transform="translate(856 541)"/></g></svg>