 <svg version="1.0" class="icon-quote" xmlns="http://www.w3.org/2000/svg" width="700.000000pt" height="313.000000pt" viewBox="0 0 700.000000 313.000000" preserveAspectRatio="xMidYMid meet">
<metadata>
Created by potrace 1.12, written by Peter Selinger 2001-2015
</metadata>
<g id="root" transform="translate(0.000000,313.000000) scale(0.100000,-0.100000)" stroke="none">
<path fill="currentColor" d="M2095 3094 c-22 -9 -76 -24 -120 -35 -44 -11 -119 -34 -167 -50 -48
-16 -94 -29 -102 -29 -20 0 -204 -63 -244 -84 -41 -21 -77 -75 -103 -154 -12
-35 -26 -61 -32 -59 -6 2 -24 36 -40 75 -16 40 -34 72 -39 72 -41 0 -222 -129
-355 -253 -64 -60 -204 -256 -241 -337 -57 -128 -94 -227 -108 -297 -9 -43
-20 -96 -24 -118 -5 -22 -11 -100 -14 -174 -4 -84 -10 -140 -18 -150 -47 -60
-117 -143 -152 -181 l-41 -44 -5 374 -5 375 -142 3 -143 3 0 -966 0 -966 142
3 143 3 3 396 2 395 29 28 c16 16 34 25 39 22 10 -6 48 -52 404 -493 87 -107
187 -230 223 -274 l66 -79 184 0 c102 0 185 3 185 6 0 9 -45 65 -461 564 -211
254 -385 470 -387 481 -3 15 49 90 128 182 7 8 91 23 190 32 62 7 272 73 340
108 200 103 259 146 405 292 95 96 176 208 242 337 38 74 94 238 118 348 13
58 29 121 35 140 6 19 17 69 26 110 8 41 21 93 28 115 8 22 19 67 26 100 6 33
18 85 26 116 22 88 23 87 -41 63z m-270 -408 c-8 -43 -24 -108 -34 -145 -11
-36 -26 -96 -34 -133 -37 -157 -153 -359 -292 -507 -63 -67 -247 -195 -325
-227 -210 -85 -200 -81 -200 -64 0 6 31 48 70 93 38 45 70 85 70 88 0 3 -37 9
-82 13 -46 3 -106 9 -133 12 -46 5 -54 3 -83 -21 -18 -15 -35 -25 -38 -22 -3
2 9 60 27 128 32 126 86 248 158 360 44 68 189 229 207 229 15 0 45 -64 75
-156 31 -95 108 -279 116 -278 5 0 20 30 35 65 69 168 103 252 138 344 53 137
91 228 101 241 5 6 34 16 65 23 31 7 79 21 107 31 29 10 55 15 59 11 4 -4 1
-42 -7 -85z"></path>
<path fill="currentColor" d="M5148 1538 l-3 -223 -58 -3 -58 -3 3 -127 3 -127 57 -3 58 -3 2 -472
3 -472 138 -3 137 -3 0 475 0 475 108 3 107 3 3 127 3 127 -108 3 -108 3 -3
223 -2 222 -140 0 -140 0 -2 -222z"></path>
<path fill="currentColor" d="M2437 1360 c-13 -30 -68 -158 -122 -285 -53 -126 -105 -248 -115
-270 -10 -22 -28 -65 -40 -95 -36 -87 -45 -91 -70 -34 -13 27 -37 81 -55 119
-18 39 -58 124 -88 190 -30 66 -76 166 -102 223 l-48 102 -154 0 c-84 0 -153
-2 -153 -4 0 -2 59 -124 131 -272 72 -148 159 -327 194 -399 204 -422 296
-605 303 -605 5 0 22 28 37 62 15 35 38 87 51 116 13 29 24 54 24 57 0 2 16
38 35 79 19 42 35 78 35 80 0 3 13 33 29 68 16 35 48 108 71 163 58 135 63
139 89 80 12 -26 21 -49 21 -51 0 -2 14 -33 30 -69 17 -36 30 -67 30 -70 0 -2
13 -32 29 -67 16 -35 41 -92 56 -128 15 -36 38 -89 51 -118 13 -29 24 -54 24
-57 0 -2 16 -39 36 -82 l37 -78 108 220 c59 121 152 310 205 420 54 110 146
300 206 422 59 122 108 224 108 227 0 3 -69 6 -153 6 l-152 0 -14 -32 c-8 -18
-31 -69 -52 -113 -20 -44 -47 -102 -59 -130 -12 -27 -40 -88 -61 -133 -22 -46
-39 -86 -39 -87 0 -11 -80 -174 -88 -179 -9 -5 -24 25 -83 164 -17 41 -39 93
-49 115 -10 22 -30 69 -45 105 -15 36 -40 93 -56 128 -16 35 -29 65 -29 67 0
4 -31 75 -74 170 l-14 30 -25 -55z"></path>
<path fill="currentColor" d="M4060 1336 c-178 -33 -315 -120 -414 -261 -89 -127 -121 -239 -113
-400 11 -218 105 -387 280 -504 110 -74 206 -101 362 -101 174 0 300 42 415
139 138 116 206 238 229 412 25 193 -33 377 -162 516 -106 113 -215 171 -372
199 -93 16 -136 16 -225 0z m240 -259 c149 -49 240 -191 240 -377 0 -123 -32
-209 -105 -284 -79 -82 -201 -117 -329 -96 -154 25 -255 134 -286 309 -32 177
46 358 185 426 91 44 201 52 295 22z"></path>
<path fill="currentColor" d="M6272 1334 c-209 -38 -371 -190 -433 -407 -39 -137 -36 -332 7 -466
41 -127 132 -246 237 -309 102 -61 183 -82 322 -82 78 0 145 6 181 15 109 28
223 101 298 188 39 47 96 130 96 141 0 2 -50 32 -112 66 l-112 62 -24 -29
c-146 -177 -179 -197 -312 -196 -56 0 -98 6 -124 18 -104 45 -168 135 -191
267 l-6 38 437 2 c428 3 437 3 440 23 6 34 -16 220 -32 276 -49 175 -170 311
-329 370 -44 16 -184 39 -230 38 -22 -1 -73 -7 -113 -15z m264 -266 c66 -30
144 -127 144 -178 0 -19 -8 -20 -273 -20 -151 0 -276 3 -280 6 -10 11 21 74
59 121 78 95 231 127 350 71z"></path>
</g>
</svg>