<svg xmlns="http://www.w3.org/2000/svg" xmlns:xlink="http://www.w3.org/1999/xlink" viewBox="0 0 24 30" version="1.1" x="0px" y="0px"><title>29 -Atoms- (Solid)</title><desc>Created with Sketch.</desc><g stroke="none" stroke-width="1" fill="none" fill-rule="evenodd"><g fill="#000000"><path d="M19.9658,15.9312 C19.2168,15.9312 18.5228,16.1502 17.9208,16.5072 L16.0148,14.6012 C16.5028,13.8502 16.7928,12.9602 16.7928,12.0002 C16.7928,11.0062 16.4888,10.0822 15.9688,9.3162 L18.4938,6.7892 C19.0388,7.1122 19.6668,7.3102 20.3448,7.3102 C22.3608,7.3102 23.9998,5.6712 23.9998,3.6552 C23.9998,1.6392 22.3608,0.0002 20.3448,0.0002 C18.3288,0.0002 16.6898,1.6392 16.6898,3.6552 C16.6898,4.2652 16.8538,4.8312 17.1188,5.3372 L14.5168,7.9392 C13.7838,7.4832 12.9258,7.2072 11.9998,7.2072 C11.0388,7.2072 10.1458,7.4982 9.3948,7.9872 L6.1878,4.7452 C6.4128,4.3012 6.5518,3.8062 6.5518,3.2762 C6.5518,1.4702 5.0818,0.0002 3.2758,0.0002 C1.4698,0.0002 -0.0002,1.4702 -0.0002,3.2762 C-0.0002,5.0822 1.4698,6.5522 3.2758,6.5522 C3.8218,6.5522 4.3288,6.4052 4.7818,6.1672 L7.9828,9.4032 C7.4968,10.1532 7.2068,11.0422 7.2068,12.0002 C7.2068,12.9602 7.4968,13.8502 7.9848,14.6012 L6.7368,15.8492 C6.0598,15.4272 5.2688,15.1722 4.4138,15.1722 C1.9808,15.1722 -0.0002,17.1522 -0.0002,19.5862 C-0.0002,22.0202 1.9808,24.0002 4.4138,24.0002 C6.8478,24.0002 8.8268,22.0202 8.8268,19.5862 C8.8268,18.7322 8.5728,17.9402 8.1508,17.2632 L9.3988,16.0152 C10.1498,16.5032 11.0398,16.7932 11.9998,16.7932 C12.9598,16.7932 13.8508,16.5032 14.6008,16.0152 L16.5068,17.9212 C16.1498,18.5232 15.9308,19.2162 15.9308,19.9652 C15.9308,22.1902 17.7408,24.0002 19.9658,24.0002 C22.1908,24.0002 23.9998,22.1902 23.9998,19.9652 C23.9998,17.7412 22.1908,15.9312 19.9658,15.9312"/></g></g></svg>